<svg xmlns="http://www.w3.org/2000/svg" id="Layer_1" viewBox="0 0 1000 292.32"><defs><style>.cls-1{fill:#0097ce;}</style></defs><path class="cls-1" d="m45.13,165.02l4.23-11.86,6.76-18.96,4.8,14.34,5.55,16.48h-21.34Zm25.9-70.4h-30.34L0,202.48h31.82l5.31-15h36.92l5.04,15h31.82l-39.88-107.86h0Zm571.48,70.4l4.23-11.86,6.76-18.96,4.8,14.34,5.55,16.48h-21.34Zm25.9-70.4h-30.34l-40.69,107.86h31.82l5.31-15h36.92l5.04,15h31.82l-39.88-107.86h0Zm-454.43,41.15c-1.27,3.68-4.79,5.04-11.97,5.04h-19.11v-20.89h19.11c6.63,0,10.16,1.15,11.64,4.23,1.69,3.5,1.24,9,.33,11.62h0Zm7.75,25.24c13.75-5.01,21.8-16.66,21.8-31.97,0-21.22-14.02-34.41-36.57-34.41h-52.99v107.86h28.94v-39.03h7.57l24.96,39.03h34.3l-28-41.48h0Zm91.01,18.29c-18.36,0-29.3-11.52-29.3-30.84s10.94-30.81,29.3-30.81,29.27,11.79,29.27,30.81-10.94,30.84-29.27,30.84h0Zm0-86.18c-35.39,0-58.27,21.73-58.27,55.35,0,26.77,15.31,55.37,58.27,55.37s58.24-28.6,58.24-55.37c0-33.61-22.88-55.35-58.24-55.35h0Zm248.26,1.51v39.77h-33.14v-39.77h-28.97v107.86h28.97v-42.77h33.14v42.77h28.97v-107.86h-28.97Zm-178.71,53.85c0,29.81,17.81,55.35,55.77,55.35,19.38,0,36.58-4.68,46.28-9.59l-4.94-22.35c-13.85,6.17-23.74,8.52-36.79,8.52-20.17,0-31.84-14.48-31.84-31.94,0-20.86,11.66-31.94,26.89-31.94,17.8,0,20.37,12.99,18.79,23.42h26.69c7.72-27.26-5.93-46.84-46.07-46.84-31.05,0-54.79,17.67-54.79,55.36h0Zm107.86,108.53c0-12.67,8.47-23.38,24.19-23.38,6.37,0,11.52,1.15,15.72,2.71l-1.02,4.34c-5.08-1.83-9.62-2.51-14.71-2.51-11.66,0-18.77,8.06-18.77,18.84s7.12,18.84,18.77,18.84c3.46,0,7.18-.34,10.71-1.36v-15.65h5.35v18.77c-4.68,1.83-9.49,2.78-16.06,2.78-15.72,0-24.19-10.5-24.19-23.38Zm54.15,1.56v21.14h-5.35v-45.41h5.35v19.72h24.8v-19.72h5.35v45.41h-5.35v-21.14h-24.8Zm76.79,21.14h-5.96l-4.47-12.33h-20.33l-4.61,12.33h-5.96l17.35-45.75h6.51l17.48,45.75Zm-29.14-16.88h17.01l-8.54-22.84-8.47,22.84Zm39.79-20.13v37h-5.35v-45.41h6.57l24.94,37.2v-37.2h5.35v45.41h-6.57l-24.94-37Zm78.15,37h-5.96l-4.47-12.33h-20.33l-4.61,12.33h-5.96l17.35-45.75h6.51l17.48,45.75Zm-29.14-16.88h17.01l-8.54-22.84-8.47,22.84Zm277.86-155.2c.46-.34.77-.58,1.25-.7,2.45-.7,4.79-1.75,7.02-2.96,1.92-1.04,3.76-2.2,5.59-3.33,8.85-5.84,17.23-12.68,23.31-21.47,6.29-9.11,6.32-18.9-5.01-23.64-16-5.41-50.53,10.53-82.63,28.98-1.47.85-2.94,1.69-4.4,2.56-4.27,2.5-8.49,5.04-12.59,7.55,2.62-2.56,4.83-5.62,5-9.29,3.88-1.56,5.9-5.57,7.82-9.01,3-1.9,5.95-3.55,9.11-5.2,1.04-.58,1.69-1.62,2.3-2.59,2.26-.34,4.15-1.92,5.68-3.49,4.47-4.89,7.34-10.97,9.1-17.32.83-.55,1.38-1.32,1.81-2.05.94-1.74,1.37-3.57,1.56-5.49.03-.77.1-1.47-.01-2.2,1.47-1.34,2.17-3.37,2.94-5.14.68-1.86,1.41-3.73,1.53-5.74,1.4-1.1,2.33-2.6,3.42-4.01,1-1.41,1.96-2.84,2.69-4.45l.09-.22c2.96-1.61,5.38-4.04,6.76-7.14.09-.24.18-.49.24-.79,2.32-1.19,4.12-4.64,4.13-6.9-.77-6.18-11.22-2.78-14.9-1.46-41.03,16.78-78.58,59.32-102.61,97.42-.06-.12-.12-.25-.18-.37-.12.09-.24.16-.36.25.06.22.12.45.18.68-.1.15-.19.28-.28.43-.37-.73-.74-1.46-1.16-2.27-.31.76-.42,1.38-.01,2.04.1.18.03.46.04.7-.19-.13-.45-.25-.59-.45-.58-.73-1.13-1.47-1.83-2.2.06.24.07.49.16.71.22.55.56,1.06.68,1.61.06.36-.21.79-.33,1.17-.31-.12-.76-.16-.91-.39-.39-.61-.64-1.31-1.01-1.95-.18-.3-.48-.54-.73-.82.09.34.15.68.27,1.01.16.49.39.95.43,1.52-.19-.15-.37-.3-.7-.58-.03.48-.01.82-.09,1.13-.06.24-.24.43-.36.65-.1-.19-.21-.39-.33-.56-.09-.15-.19-.31-.3-.46-.15.1-.31.21-.46.34-.06.04-.04.15-.07.21-.1.31-.22.62-.34.92-.27-.28-.55-.53-.79-.83-.22-.28-.4-.58-.59-.88-.13.04-.12.04-.25.07v1.06c-.54-.43-1.03-.82-1.5-1.22-.1.07-.09.06-.18.13.24.77.49,1.55.79,2.48-1.98-.64-2.59-2.45-3.92-3.46.37,1.28,1.71,2.13,1.68,3.57-.15.03-.12.03-.25.07-.21-.34-.4-.67-.68-1.13-.1.28-.21.43-.21.57.03,1.2.04,1.2-1.1,1.07-.48.86-.58.86-1.22.07-.24-.3-.51-.61-.86-.89.22.71.97,1.5-.28,1.93-.24-.51-.49-1.03-.76-1.56-.06.03-.12.04-.18.06v.59q-.1.03-.19.07c-.51-.58-1.01-1.16-1.52-1.72-.04.03-.09.07-.15.1.33.49.62,1.01.98,1.47.28.39.53.8.15,1.16-.4.39-.86.18-1.17-.25-.4-.58-1.01-.56-1.75-.58.22.42.4.76.56,1.09l-.15.12c-.86-1-1.72-1.99-2.6-2.99-.12.04-.13.04-.25.09-.04.82.56,1.32,1.01,1.89.12.13.31.22.39.36.07.13.07.34.01.48-.01.06-.28.07-.4.03-.28-.15-.54-.33-.89-.57-.06.33-.09.54-.12.74-1.43-.25-2.41-1.64-4.12-1.44.36.43.62.77.92,1.13-.77.39-1.01.21-1.58-.52-.48-.62-1.16-1.1-1.77-1.61-.13-.12-.37-.09-.67-.13.34.68.83,1.26.91,1.89.12.95.04,1.93.46,2.84.03.07,0,.21-.04.3-.39.67-.4,1.22.42,1.59,0,0,.01,0,.01.01-.15.46-.27.76-.34,1.07-.09.42-.28.45-.58.22-.56-.42-1.14-.83-1.71-1.25-.06.04-.1.09-.15.13.24.33.43.73.74.97.34.25.58.51.3.85-.1.13-.54.01-.8,0-.1,0-.19-.01-.33-.04.07.88-.04,1.69.76,2.35.55.46.06.85-.4.98-.55.18-.76.42-.77,1.03-.01.43-.39.88-.64,1.29-.62,1.01-1.37,1.95-1.87,3.02-.24.49-.01,1.2-.01,1.81,0,.25,0,.54-.12.74-.39.82-.83,1.59-1.23,2.41-.07.16,0,.39,0,.64-.79-.07-1.01.37-.95,1.07.01.22-.12.43-.16.65-.13.68-.27,1.37-.37,2.05-.06.36-.06.74-.07,1.11q-.1.03-.21.06c-.19-.25-.37-.49-.55-.74-.09.01-.07.01-.18.04.07,1.13.13,2.26.19,3.39-.09.01-.16.01-.25.03-.1-.24-.22-.48-.39-.82-.09.3-.16.52-.25.83-.33-.09-.65-.18-.98-.27-.04.06-.1.18-.28.46-1.81-2.51-3.55-4.92-5.41-7.49.39,1.16.74,2.22,1.13,3.37-.36-.03-.51-.03-.73-.06.39,1.13.83,2.2.4,3.48-1.87-2.99-3.72-5.89-5.53-8.77-.12.06-.07.04-.21.1.34.83.67,1.68,1.04,2.63q-1.04-.37-1.07.95c-.19-.25-.3-.39-.39-.53-.1-.16-.19-.34-.37-.65-.15.61-.25,1.09-.37,1.55-.15.03-.18.04-.34.07-.43-.58-.86-1.14-1.29-1.71-.16.07-.12.06-.27.15.22.55.43,1.13.65,1.69-.1.06-.09.06-.18.13-1-.76-1.26-2.51-3.12-2.3.67,1.01,1.29,1.95,1.92,2.88-.12.07-.22.16-.33.25-.21-.22-.43-.45-.59-.7-.61-.94-1.95-2.72-3.18-2.97.51.88.92,1.61,1.35,2.35-.06.04-.04.04-.1.09-.77-.61-1.53-1.23-2.29-1.86-.13.15-.09.1-.22.24.77.98,1.56,1.96,2.35,2.94-.04.04-.09.1-.15.15-.19-.07-.39-.15-.73-.28.34.82.64,1.53.97,2.29-.8.12-1-.51-1.28-.92-.58-.86-.55-.88-1.53-.3.25.55,1.64.39.98,1.5,1.13.03,1.93,1.14,1.72,2.53-.59-.43-1.16-.82-1.78-1.28-.04.33-.06.55-.07.82-.24-.07-.45-.13-.65-.19-.01.06-.04.1-.07.15.68.42,1.34.82,2.02,1.22-.07.12-.15.24-.21.34-1.4-.85-2.78-1.72-4.16-2.57-.04.06-.1.1-.15.16.56.62,1.14,1.23,1.71,1.86-.07.1-.06.1-.15.21-.27-.09-.55-.16-.82-.27-.13-.06-.25-.25-.37-.24-.37,0-.73.09-1.09.15.07.25.13.53.21.79-.48-.19-1-.4-1.58-.64-.1.39-.15.62-.19.8-.8-.27-1.55-.52-2.35-.79-.45.88-1.17,1.58-.36,2.6-.19.01-.34.06-.37.03-.55-.73-1.46-.39-2.14-.7-.33-.13-1.32.85-1.41,1.2-.13.56-.07,1.28-.94,1.37-.09,0-.16.27-.22.4-.19.48-.4.94-.52,1.43-.07.4-.01.83-.01,1.37-.16.04-.46.1-.88.19.45,1.37,2.02,1.41,2.82,2.59-.37.06-.65.16-.92.13-.82-.1-1.53-.04-1.95.82-.06.1-.31.1-.37.21-.1.19-.22.43-.18.64.19,1.07,1.07,1.52,1.75,1.86.09.57.18.98.18,1.38,0,.16-.19.42-.36.48-.21.07-.49,0-.73,0-.04.13-.04.12-.09.25.73.48,1.44.97,2.19,1.46-.03.15-.07.31-.1.48-2.5-.91-5.07-1.68-7.67-2.29-1.17-.22-2.88.07-3.39.55-9.93,9.26-17.94,16.87-25.62,30.77,10.3-9.74,19.42-20.19,26.37-29.42.1.01-.37-1.06.52-.7,0,0,4.71,2.63,9.16,4.53-.01.03-.01.07-.03.12.62.21,1.26.42,1.95.65.16.06.33.12.51.18-.18.24-.33.45-.4.55.18.82.34,1.55.55,2.53.86.67,1.11,1.35.42,2.02.1.07.18.16.27.24-2.24.03-4.49.18-6.73.45-1.13.19-2.81.95-2.9,1.61-1.74,12.55-3.45,23.34.65,35.06.4-10.24,2.22-27.62.49-34.07.1-.01-.68-.83.24-.79,0,0,5.35.86,10.05,1.1.18.92.33,1.84-.21,2.75q1.62.13,1.22.98c.28.46.53.91.83,1.41-.46.28-.91.58-1.35.88q.01.1.04.19c.59.07,1.2.15,1.93.24-.15.15-.22.25-.33.28-.21.06-.4.12-.59.19.18.12.36.27.49.49.28.43.54.86.73,1.31-.1-.01-.22-.01-.34-.03.62.95,1.06,2.01,1.28,3.08h.04c.3,1.47.4,2.99.56,4.5.01.03.01.06.01.09v.1c.12,1.1.27,2.19.54,3.29.65,2.76,1.49,5.74,2.82,8.34.01-.1.04-.21.07-.36.07.1.15.19.21.27,0,1.14,2.75,4.01,2.88,3.17.04.01.07.01.1.03.07.03.19.13.19.21.07,1.04.98,1.29,1.67,1.71.49.3.62.56.12.89-.4.27-.36.53-.22.91.73,1.95,1.71,3.73,3.02,5.37.74.92.67,2.05.64,3.2-.03.86.04,1.78.3,2.6.59,1.96,1.69,3.66,3.3,4.95.48.37,1.16.49,1.72.76.52.25,1.07.48,1.5.83,1.19.97,2.24.91,3.37-.07,1.56-1.35,1.55-3.06,1.32-4.85-.16-1.28-.64-2.56-.13-3.85.48-1.22,1.01-2.42,1.58-3.6.43-.89.95-1.74,1.47-2.59.33-.54.76-1.01,1.11-1.53.25-.34.64-.7.7-1.07.15-1.06.86-1.49,1.69-1.93,1.1-.59,2.19-1.28,3.26-1.93.09-.06.22-.19.22-.28-.12-1.06.82-.85,1.34-1.11.19-.09.48-.1.58-.25.37-.51.61-1.11,1.03-1.56.34-.37.85-.76,1.32-.8.98-.12.68-.73.65-1.28,0-.1-.04-.24-.06-.36.82-.49,1.68-.8,2.26-1.68.64-1-.06-1.95.28-3.05.19.27.34.43.45.62.04.1-.01.27.04.36.18.3.4.57.59.85.21-.22.45-.45.62-.7.21-.33.09-.89.76-.88.1,0,.39-.67.28-.88-.25-.49-.04-.74.25-1.07.25-.25.43-.56.7-.97.95.06.85-.94,1.06-1.55.09-.28-.27-.73-.45-1.13,0,0,1.01-.46.61-.58.56-.49,1.22-.39,1.92.33-.67-3.48-.59-7.2.48-11.28-.27,4.49-.01,7.91.65,10.96-.03.25-.03.51-.03.76h0c-.01,4.42,1.78,8.53,4.97,11.68.52.52,1.1,1.03,1.72,1.5.98.76,1.96,1.43,3.09,2.01,3.52,4.25,8.03,6.84,12.41,10.06-2.17,3.64-2.63,8.47-.49,12.15,1.11,1.86,3.69,3.08,5.43,1.32-1.61-.83-1.64-1.62-1.53-3.06.07-1.11.19-2.47.25-3.88.1-3.2.01-6.21-1.2-9.47-.33.28-.64.56-.94.89.24-4-2.41-8.1-5.26-10.54-1.23-1.1-2.54-1.96-3.92-2.66.3-.77.54-1.58.71-2.38.04-.24.09-.48.12-.71.01-.04.01-.07.03-.12.39-2.51.16-5-.59-7.3-.01,0-.04,0-.06.01-.03-.13-.06-.27-.07-.42-1.14-6.32-3.92-12.31-8.1-17.29,5.14,4.18,8.43,10.57,9.17,17.19.34-.22.68-.49.98-.8.18-.18.36-.31.55-.39l.04-.04c.09-.1.27-.13.39-.24.25-.25.58-.49.74-.79.36-.61.64-1.29.95-1.92.03-.06.12-.09.19-.12.88-.25,1.75-.73,2.62-.7,1.11.03,2.14-.52,3.26-.33.16.03.37-.24.62-.42,1.11.55,2.29-.12,3.48-.12.79.01,1.49-.53,2.35-.25.3.09.74-.34,1.13-.52.3-.12.61-.31.89-.28.48.04,1.75-.36,1.86-.83.18-.74.79-.85,1.29-1.16.48-.28.92-.58,1.4-.83.15-.07.37-.07.54-.07.59.03,1.17.07,1.77.12.34.01.71-.01,1.04.07,1.13.33,2.01.98,2.71,1.95.49.65,1.34,1.13,1.64,1.83.01.04.03.09.06.13-1.28-7.91-.86-16.04,2.6-20.78-2.79,5.23-2.65,13.48-1.28,21.29.01.09.03.19.06.28-.06-.01-.12-.01-.18-.01-.25.62-.49,1.26-.71,1.92-2.27,6.75-2.81,15.02-3.37,20.37-.3,3.45-1,7.15-1.86,10.58h.18c-4.34,2.57-7.76,7.12-8.06,11.98-.12,2.72,1.67,5.65,4.7,5.11l-.42-.77c-.21-.43-.33-.89-.36-1.32.04-.89.51-1.46,1.01-2.24.8-1.2,1.9-2.6,2.96-4.07,2.24-3.14,4.28-6.21,5.46-10.17,5.86-3.06,9.38-10.23,10.11-16.62.51-3.87.25-7.6-.49-11.11-.01-.1-.04-.19-.06-.28-.15-.67-.3-1.32-.48-1.96.48-1.52.86-3.08,1.14-4.65.77-3.73,1.53-7.49,1.56-11.31.03-1.89-.24-3.81-1.14-5.52,3.11,4.68,1.55,11.82.73,17.05-.27,1.64-.65,3.26-1.14,4.83.33.12.64.25.95.4.58-.46,7.88,11.79,7.95,12.41.22,1.95.65,3.82,1.5,5.63.74,1.55,1.22,3.23,1.78,4.85.46,1.26.88,2.54,1.31,3.82.1.27.18.54.25.8.19.71.48,1.28.97,2.27.12.01.13.12.4.77.76-1.11,1.77-2.29,2.66-3.29,4.4-5.26,16.55-13.26,15.51-20.38,1.55,7.52-10.01,16.34-14.44,21.76-1.07,1.28-2.22,2.57-3,4.04-.07.03-.13.06-.21.09-.52.25-1.04.52-1.55.8-7.42,4-13.04,10.09-16.62,17.33-.1.18-.19.37-.28.56-.16.34-.33.68-.48,1.03-.16.36-.31.71-.46,1.06-1.58,3.81-2.63,7.89-3.14,12.12-.04.19-.07.4-.1.61-1.77.89-3.11,2.81-3.48,4.56-.48,2.35.13,3.57,1.01,5.72-4.27,3.98-6.7,10.67-4.91,16.14.89,2.59,3.64,4.64,6.24,3.02l-.65-.56c-.36-.33-.65-.7-.83-1.1-.28-.85-.07-1.53.12-2.45.31-1.43.8-3.12,1.23-4.88.79-3.17,1.44-6.23,1.41-9.59,1.81-.89,3.17-2.85,3.54-4.65.09-.46.15-.88.16-1.26.12-.01.24-.01.37-.01,4.67-.3,9.32-1.99,13.14-3.98,6.75-3.57,12.04-8.4,16.16-14.2.42-.59.82-1.2,1.22-1.81.01-.03.03-.04.04-.07.01,0,.04.01.04.01,2.47-1.43,4.21-4.24,5.57-6.68,1.47-2.87,2.68-5.87,3.66-8.96.12-.37.24-.76.36-1.13,1.37-4.56,2.26-9.29,2.79-13.99.09-1.04.13-2.1.1-3.15-.04-.59-.07-1.29-.33-1.84.39.73.45,1.67.52,2.47.18,7.64-1.58,25.45-11.64,35.11.01.18,1.09,1.69,1.64,2.53,0,.01.01.01.01.01,1.75,3,4.18,7.06,4.97,8.13.76,1,3.32,1.65,5.63,2.33.1.1.21.22.31.34.07.09.21.16.33.18,1.92.19,2.45,1.84,3.21,3.15.12.22.22.46.31.7-.36,3.97-1.34,11.39,8.91,17.04.01.01.04.03.07.04,12.53,6.88,23.1,17.48,24.95,21.01h.01c.45.74.58,1.23.68,1.75.21,1.14.21,1.98.15,3.14,0,.15.16.24.28.15,1.1-.76,1.58-2.23,1.84-3.48v-.03c.24-1.47.94-2.84,2.05-3.84,4.88-4.42,9.54-13.97,9.95-18.73.01-.22.01-.45.01-.65v-.19c.12.01.24,0,.36-.01,1.25-.12,2.32-1.1,3.23-2.69,1.29-2.22,2.24-5.62,2.93-9.4.1-.56.21-1.16.3-1.75-6.32.15-12.58-1-18.18-4.01-2.2-1.2-4.22-2.66-5.93-4.42,2.44.19,4.76.3,7,.24,6.36-.22,12.35-1.62,18.14-3.72.1-3.85-.04-6.97-.4-8.28,1.35-1.14,1.61-4.76,1.22-9.25-10.48,2.11-21.33,1.49-31.41-2.88-2.07-.86-4.1-2.08-5.95-3.32,5.11-.8,9.62-1.29,14.32-2.23,6.97-1.43,13.86-3.32,20.52-5.84-1.29-5.05-2.8-9.35-3.94-10.96,1.09-1.49.19-5.87-1.44-11.06-10.6,5.41-22.58,7.54-34.62,4.46-1.64-.52-3.48-1.11-5.02-1.81,1.58-.71,3.26-1.35,4.83-1.95,4.45-1.84,8.85-3.76,13.08-6.01,5.62-2.91,10.85-6.38,15.8-10.2-1.89-4.43-3.37-7.61-3.37-7.61,1.13-.88.22-4.71-4.79-11.95-7.36,8.76-18.08,14.9-30.36,16.96-2.5.4-5.01.67-7.55.65,1.71-1.84,3.46-3.55,5.23-5.26,8.09-7.98,16.46-16.35,21.08-26.61-2.23-2.47-4.74-5.13-7.54-7.97.58-3.03-5.29-5.55-9.43-6.82,7.11-.13,14.09-.13,20.66-.04,6.59.09,12.77.27,18.24.46,4.71.16,8.91.36,12.38.52,1.25.06,5.02.27,6.26.31h.13s.06.01.06.01c0,0,.06.01.21-.01.24-.03.43-.19.51-.33.1-.15.15-.31.15-.49,0-.24-.18-.52-.37-.65-.39-.31-.83-.55-1.25-.74-5.22-2.22-10.85-2.96-16.4-3.87-.68-.09-1.37-.18-2.07-.27-5.87-.74-11.79-1.29-17.72-1.62-1.67-.1-3.36-.18-5.04-.25,1.69-.68,3.33-1.49,4.91-2.39,2.24-1.31,4.39-2.85,6.33-4.67Zm-167.32,39.84c-4.98,13.51-1.55,29.23,5.43,38.59-13.22-9.65-14.36-26.09-5.43-38.59Zm7.91,11.31c-2.94-.55-4.3-3.81-2.85-6.5,3.02-.13,4.92,4.19,2.85,6.5Zm3.58,23.24c5.25-10.72,3.9-23.24-1.49-29.73,9.51,5.26,11.82,21.08,1.49,29.73Zm41.12-81.92c-.27.18-2.5.82-2.63.73-.34-.22-.73-.34-1.14-.52-.21.46-.48.48-1,.51-.86.09-.94-.4-1.11-.85,6.66-9.6,13.71-18.94,21.2-27.92,18.35-21.9,39.1-42.16,63.35-57.44,6.04-3.73,22.78-13.34,29.45-11.24.21.12.27.19.33.3-.01.43-.15.88-.36,1.34-.43,1.03-1.34,2.47-2.27,2.94l-1.37,1.56c0,.12-.03.4-.16.71-1.1,2.45-3.36,4.7-5.75,5.89l-.86,1.17c-.52,1.35-1.55,2.9-2.44,4.21-.92,1.28-1.9,2.74-3.11,3.72l-.65,1.84c-.04-.09-.06-.15-.06-.18-.1,1.71-.73,3.4-1.31,5.01-.58,1.5-1.19,3.06-2.23,4.27-.1.12-.22.19-.24.21l-.56,1.77c.36,1.98-.15,4.52-1.07,6.38-.48.89-1,1.34-1.74,1.67-.95,4.33-2.62,8.52-4.79,12.41-1.98,3.27-4.86,8.01-8.95,8.41-.37.58-.76,1.25-1.13,1.78-.97,1.41-2.65,1.81-4.06,2.79-2.05,1.22-4.03,2.53-5.98,3.87l-.13.09-.06.12c-1.81,3.52-3.49,7.52-7.33,9.19l-.19.09v.21c0,3.82-2.3,7.11-4.95,9.84-3,1.84-5.95,3.67-8.82,5.49,0,0-7.94,4.9-8.85,5.38-.04-.22-.19-1.2-.22-1.4-.71-.1-.82,1.38-1.69.4-.21.24-.39.45-.56.64q-.07-.03-.13-.06c.16-1.11.31-2.23-.82-3.02-.13.27-.25.58-.45.8-.25.3-.58.51-.88.76-.15-.28-.3-.58-.45-.88-.03-.06-.03-.15-.01-.22.04-.74-.13-1.29-1.09-1.09-.04-.34-.1-.62-.13-.88-.33.21-.59.49-.91.55-.33.06-.68-.1-1.06-.19-.1-.3-.13-.67-.33-.95-.15-.22-.48-.4-.76-.46-.7-.12-1.5.13-1.93-.74-.09-.15-.45-.21-.68-.25-.51-.07-1.03-.1-1.61-.16-.04.59-.43.67-1.2.57-.27-.03-.77-.06-1.16.18,0,.09,0,.19.01.28-.12-.06-.22-.15-.36-.24-.33-.24-1.09-.7-1.69-.15-.04.03-.16.05-.22.03-.65-.24-1.37-.37-1.96-.73-1.52-.89-2.96-.51-4.43.07-.27.12-.54.15-.82.22-.13.04-.33.03-.42.1-.59.62-1.38.59-2.13.74-.31.06-.65.15-.94.33Zm4.12,24.74c.01.13-.04.3-.12.39-.03.06-.3,0-.39-.07-.18-.16-.33-.33-.52-.53-.06-.07-.12-.15-.21-.24-.03.06-.06.12-.07.16l-.79-.16s.06-.03.07-.04c.43-.27.88-.55,1.35-.86.1.3.25.56.39.85.07.16.24.3.28.46v.06Zm104.42-8.8c5.96.34,11.92.91,17.84,1.71.58.06,1.16.15,1.74.24,4.1.62,8.21,1.34,12.22,2.44,1.16.36,2.35.68,3.43,1.17h-.54c-5.55-.3-11.09-.54-16.65-.71-6.04-.21-12.09-.36-18.12-.42-8-.07-16,0-23.99.27-.67.01-12.93.61-17.44.95-12.16.89-24.31,2.41-36.13,5.53-.04,0-.07.01-.1.01-2.82.83-5.74,1.67-8.5,2.8.01-.06.03-.1.06-.15.33-.48.8-.82,1.19-1.23.16-.16.28-.39.43-.59-.85.42-1.58.91-2.33,1.37-.19.12-.42.13-.64.21.12-.22.18-.52.33-.64.33-.25.52-.55.65-.91,0-.03.01-.04.01-.07.01-.03.01-.04.03-.07.07-.24.1-.51.13-.8-.33.3-.64.58-.94.86-.03.01-.04.03-.07.06l-.04.04c-.36.33-.7.64-1.04.95-.04-.09-.1-.15-.16-.22.19-.25.37-.48.55-.73.01,0,.01-.01.01-.03.01-.01.03-.03.03-.04.07-.09.15-.18.22-.27-.06-.12-.12-.24-.18-.36-.16.15-.33.31-.49.46-.06.06-.12.12-.18.19,0,0-.01,0-.01.01v.03c-.31.31-.56.61-1.16.27-.12-.06-.22-.12-.3-.19.12-.04.24-.1.36-.15,1.56-.64,3.14-1.23,4.71-1.81.31-.12.62-.22.95-.34.36-.13.71-.25,1.09-.39.19-.06.4-.13.59-.19.3-.1.59-.21.91-.31,7.46-2.5,15.13-4.37,22.91-5.77,3.24-.59,6.51-1.1,9.8-1.53,2.39-.31,4.79-.58,7.18-.82,3.76-.39,7.54-.67,11.3-.88.43-.01.86-.04,1.31-.06.94-.04,1.86-.09,2.79-.12,3.42-.13,6.85-.21,10.29-.21,1.53,0,3.06,0,4.61.03,1.22.01,2.42.04,3.63.09,2.57.06,5.14.18,7.72.33Zm-11.73-1.5c-4.88-.06-9.75.03-14.61.27-.98.03-1.95.09-2.93.15-4.15.25-8.3.61-12.43,1.09-7.33.82-14.63,1.99-21.85,3.54-6.1,1.37-12.15,3.03-18.05,5.1-.07-.36-.15-.73-.22-1.13-.4.49-.62.94-.62,1.44-.24.07-.46.16-.68.25-.22-.51-.43-1.03-.68-1.55l-.18-.36c-.06-.12-.12-.22-.18-.33,0,.15-.01.28-.01.43-.01.1-.01.21,0,.3.01.06.01.1.01.15.09.54.25,1.06.21,1.58,0,.03,0,.06-.01.09-.43.15-.86.31-1.29.48-.03-.04-.07-.07-.07-.12-.13-.42-.21-.85-.28-1.28-.03-.13-.04-.24-.07-.37-.03-.16-.07-.33-.1-.49-.1-.36-.33-.65-.49-.98-.01.34-.04.68-.01,1.04.01.24.04.49.06.73v.39c0,.15-.01.3-.04.46-.07-.1-.13-.21-.22-.33-.06-.07-.12-.16-.19-.27-.04-.06-.07-.1-.12-.16-.03.1-.06.19-.07.27-.06.16-.1.31-.15.45-.04.12-.09.25-.15.36-.12.21-.34.36-.51.54-.04-.16-.09-.33-.13-.49-.01-.05-.03-.09-.04-.13,0-.04-.03-.1-.04-.15-.03-.12-.07-.25-.1-.37-.19.06-.37.12-.55.21-.06.03-.07.12-.13.18-.15.24-.33.48-.49.71,0,0-.01,0-.01.01-.03,0-.04.01-.07.03-.18-.33-.37-.64-.52-.97s-.24-.67-.36-1h-.25l-.27,1.03c-.42-.57-.79-1.07-1.14-1.58q-.1.03-.21.07c.03.8.06,1.62.1,2.6-1.72-1.14-1.83-3.03-2.87-4.39.03,1.35,1.1,2.53.68,3.9h-.27c-.1-.37-.21-.74-.34-1.26-.19.24-.33.36-.36.49-.3,1.17-.28,1.17-1.35.73-.68.73-.77.7-1.19-.24-.16-.36-.33-.71-.59-1.07.01.56.33,1.26-.13,1.58-.13.1-.34.18-.64.19-.03-.12-.04-.22-.07-.34-.09-.45-.16-.89-.25-1.35-.07,0-.13,0-.21.01l-.15.57q-.1,0-.21.01c-.33-.68-.67-1.37-1.01-2.05-.04.01-.1.03-.16.06.19.57.34,1.14.56,1.68.1.27.21.55.13.79-.03.15-.12.27-.3.37-.49.27-.88-.06-1.06-.55-.03-.04-.04-.09-.07-.13-.27-.55-.82-.7-1.47-.89.04.22.09.42.13.59.04.22.09.4.12.59l-.18.07c-.12-.25-.24-.51-.36-.76-.31-.64-.62-1.28-.92-1.92,7.89-5.03,21.59-13.75,37.55-23.24,5.99-3.57,12.31-7.23,18.75-10.85,1.86-1.03,3.72-2.07,5.59-3.09,33.44-18.36,69.09-34.25,81.99-26.64,11.46,6.69,1.65,19.52-4.92,26.12-4.8,4.88-10.23,9.17-15.94,12.95-1.69,1.09-3.4,2.17-5.14,3.14-1.95,1.09-3.95,2.05-6.05,2.75-.98.22-2.04.71-2.75,1.34-1.58,1.49-3.24,2.79-5.01,3.92-3.49,2.26-7.31,3.87-11.31,5.04Z"></path></svg>